<svg width="293" height="72" viewBox="0 0 293 72" fill="none" xmlns="http://www.w3.org/2000/svg">
<path d="M120.813 33.2759C120.813 33.6404 120.749 34.0316 120.62 34.4494C120.498 34.8671 120.293 35.2545 120.005 35.6115C119.724 35.9685 119.355 36.2685 118.899 36.5115C118.444 36.747 117.885 36.8647 117.225 36.8647H105.979C105.767 36.8647 105.569 36.8268 105.387 36.7508C105.205 36.6748 105.045 36.5723 104.909 36.4432C104.779 36.3065 104.677 36.147 104.601 35.9647C104.525 35.7824 104.487 35.5849 104.487 35.3722V22.0194C104.487 21.8143 104.525 21.6206 104.601 21.4383C104.677 21.256 104.779 21.0965 104.909 20.9598C105.045 20.8231 105.205 20.7167 105.387 20.6408C105.569 20.5648 105.767 20.5268 105.979 20.5268H115.892C116.256 20.5268 116.647 20.5914 117.065 20.7205C117.483 20.8496 117.87 21.0585 118.227 21.3472C118.592 21.6282 118.892 21.9966 119.127 22.4523C119.37 22.908 119.492 23.4663 119.492 24.1271V24.6854C119.492 25.2095 119.404 25.7753 119.23 26.383C119.055 26.983 118.774 27.5527 118.387 28.0919C118.721 28.297 119.032 28.5439 119.321 28.8325C119.617 29.1211 119.875 29.4553 120.096 29.8351C120.316 30.2149 120.491 30.644 120.62 31.1225C120.749 31.6011 120.813 32.1289 120.813 32.7062V33.2759ZM117.851 32.7062C117.851 32.3188 117.79 31.9732 117.669 31.6694C117.547 31.358 117.376 31.0922 117.156 30.8719C116.936 30.6516 116.67 30.4845 116.359 30.3706C116.047 30.2491 115.698 30.1883 115.311 30.1883H108.634V27.2033H113.978C114.365 27.2033 114.714 27.1463 115.026 27.0324C115.337 26.9108 115.603 26.7399 115.823 26.5197C116.043 26.2994 116.211 26.0374 116.325 25.7335C116.446 25.4221 116.507 25.0727 116.507 24.6854V24.1271C116.507 23.7018 116.302 23.4891 115.892 23.4891H107.449V33.9025H117.225C117.278 33.9025 117.342 33.8987 117.418 33.8911C117.494 33.8835 117.563 33.8607 117.623 33.8227C117.684 33.7848 117.737 33.7202 117.783 33.6291C117.828 33.5379 117.851 33.4126 117.851 33.2531V32.7062ZM139.726 26.0184C139.726 26.6944 139.643 27.2982 139.476 27.8299C139.308 28.3616 139.081 28.8325 138.792 29.2427C138.511 29.6452 138.184 29.9908 137.812 30.2794C137.44 30.5681 137.049 30.8073 136.639 30.9972C136.236 31.1795 135.826 31.3124 135.408 31.396C134.998 31.4795 134.611 31.5213 134.246 31.5213L140.433 36.8647H135.853L129.677 31.5213H127.547V28.5591H134.246C134.618 28.5287 134.956 28.4527 135.26 28.3312C135.571 28.2021 135.837 28.0312 136.058 27.8185C136.285 27.6058 136.46 27.3514 136.582 27.0552C136.703 26.7513 136.764 26.4057 136.764 26.0184V24.1499C136.764 23.9828 136.741 23.8575 136.696 23.7739C136.658 23.6828 136.604 23.6182 136.536 23.5802C136.475 23.5347 136.407 23.5081 136.331 23.5005C136.263 23.4929 136.198 23.4891 136.137 23.4891H126.362V36.8647H123.4V22.0194C123.4 21.8143 123.438 21.6206 123.514 21.4383C123.59 21.256 123.692 21.0965 123.821 20.9598C123.958 20.8231 124.117 20.7167 124.3 20.6408C124.482 20.5648 124.68 20.5268 124.892 20.5268H136.137C136.798 20.5268 137.356 20.6484 137.812 20.8914C138.268 21.1269 138.636 21.4269 138.917 21.7915C139.206 22.1485 139.411 22.5358 139.533 22.9536C139.662 23.3714 139.726 23.7625 139.726 24.1271V26.0184ZM159.847 30.2567C159.847 31.2517 159.676 32.1669 159.334 33.0024C158.992 33.8379 158.517 34.5595 157.91 35.1671C157.302 35.7748 156.581 36.2495 155.745 36.5913C154.917 36.9255 154.013 37.0926 153.034 37.0926H149.023C148.043 37.0926 147.136 36.9255 146.3 36.5913C145.465 36.2495 144.743 35.7748 144.135 35.1671C143.528 34.5595 143.049 33.8379 142.7 33.0024C142.358 32.1669 142.187 31.2517 142.187 30.2567V27.1349C142.187 26.1475 142.358 25.236 142.7 24.4005C143.049 23.5574 143.528 22.8359 144.135 22.2358C144.743 21.6282 145.465 21.1535 146.3 20.8117C147.136 20.4699 148.043 20.299 149.023 20.299H153.034C154.013 20.299 154.917 20.4699 155.745 20.8117C156.581 21.1535 157.302 21.6282 157.91 22.2358C158.517 22.8359 158.992 23.5574 159.334 24.4005C159.676 25.236 159.847 26.1475 159.847 27.1349V30.2567ZM156.884 27.1349C156.884 26.5501 156.789 26.0222 156.6 25.5513C156.417 25.0727 156.155 24.6664 155.813 24.3322C155.479 23.9904 155.073 23.7283 154.594 23.546C154.123 23.3562 153.603 23.2612 153.034 23.2612H149.023C148.446 23.2612 147.918 23.3562 147.439 23.546C146.969 23.7283 146.562 23.9904 146.22 24.3322C145.879 24.6664 145.613 25.0727 145.423 25.5513C145.241 26.0222 145.149 26.5501 145.149 27.1349V30.2567C145.149 30.8415 145.241 31.3732 145.423 31.8517C145.613 32.3226 145.879 32.729 146.22 33.0708C146.562 33.405 146.969 33.667 147.439 33.8569C147.918 34.0392 148.446 34.1304 149.023 34.1304H153.011C153.588 34.1304 154.112 34.0392 154.583 33.8569C155.061 33.667 155.472 33.405 155.813 33.0708C156.155 32.729 156.417 32.3226 156.6 31.8517C156.789 31.3732 156.884 30.8415 156.884 30.2567V27.1349ZM177.312 23.4891H170.784V36.8647H167.822V23.4891H161.282V20.5268H177.312V23.4891ZM182.485 27.2033H192.887V20.5268H195.849V36.8647H192.887V30.1883H182.485V36.8647H179.523V20.5268H182.485V27.2033ZM212.757 30.1883H203.403V27.2033H212.757V30.1883ZM214.09 36.8647H203.403C202.993 36.8647 202.545 36.7926 202.059 36.6483C201.572 36.5039 201.121 36.2685 200.703 35.9419C200.293 35.6077 199.947 35.1785 199.666 34.6544C199.393 34.1228 199.256 33.4733 199.256 32.7062V22.0194C199.256 21.8143 199.294 21.6206 199.37 21.4383C199.446 21.256 199.548 21.0965 199.677 20.9598C199.814 20.8231 199.974 20.7167 200.156 20.6408C200.338 20.5648 200.536 20.5268 200.748 20.5268H214.09V23.4891H202.218V32.7062C202.218 33.0936 202.321 33.3898 202.526 33.5949C202.731 33.8 203.031 33.9025 203.426 33.9025H214.09V36.8647ZM233.287 26.0184C233.287 26.6944 233.204 27.2982 233.037 27.8299C232.87 28.3616 232.642 28.8325 232.353 29.2427C232.072 29.6452 231.746 29.9908 231.373 30.2794C231.001 30.5681 230.61 30.8073 230.2 30.9972C229.797 31.1795 229.387 31.3124 228.969 31.396C228.559 31.4795 228.172 31.5213 227.807 31.5213L233.994 36.8647H229.414L223.239 31.5213H221.108V28.5591H227.807C228.179 28.5287 228.517 28.4527 228.821 28.3312C229.133 28.2021 229.399 28.0312 229.619 27.8185C229.847 27.6058 230.021 27.3514 230.143 27.0552C230.264 26.7513 230.325 26.4057 230.325 26.0184V24.1499C230.325 23.9828 230.302 23.8575 230.257 23.7739C230.219 23.6828 230.166 23.6182 230.097 23.5802C230.037 23.5347 229.968 23.5081 229.892 23.5005C229.824 23.4929 229.759 23.4891 229.699 23.4891H219.923V36.8647H216.961V22.0194C216.961 21.8143 216.999 21.6206 217.075 21.4383C217.151 21.256 217.253 21.0965 217.382 20.9598C217.519 20.8231 217.679 20.7167 217.861 20.6408C218.043 20.5648 218.241 20.5268 218.453 20.5268H229.699C230.359 20.5268 230.918 20.6484 231.373 20.8914C231.829 21.1269 232.197 21.4269 232.478 21.7915C232.767 22.1485 232.972 22.5358 233.094 22.9536C233.223 23.3714 233.287 23.7625 233.287 24.1271V26.0184ZM250.89 23.4891H244.362V36.8647H241.399V23.4891H234.86V20.5268H250.89V23.4891ZM266.51 30.1883H257.156V27.2033H266.51V30.1883ZM267.843 36.8647H257.156C256.746 36.8647 256.298 36.7926 255.812 36.6483C255.326 36.5039 254.874 36.2685 254.456 35.9419C254.046 35.6077 253.7 35.1785 253.419 34.6544C253.146 34.1228 253.009 33.4733 253.009 32.7062V22.0194C253.009 21.8143 253.047 21.6206 253.123 21.4383C253.199 21.256 253.302 21.0965 253.431 20.9598C253.567 20.8231 253.727 20.7167 253.909 20.6408C254.091 20.5648 254.289 20.5268 254.502 20.5268H267.843V23.4891H255.971V32.7062C255.971 33.0936 256.074 33.3898 256.279 33.5949C256.484 33.8 256.784 33.9025 257.179 33.9025H267.843V36.8647ZM285.229 36.8647H274.542C274.269 36.8647 273.973 36.8343 273.654 36.7736C273.342 36.7052 273.031 36.6027 272.719 36.466C272.416 36.3292 272.123 36.1546 271.842 35.9419C271.561 35.7216 271.31 35.4596 271.09 35.1557C270.877 34.8443 270.707 34.4873 270.577 34.0848C270.448 33.6746 270.384 33.2151 270.384 32.7062V24.6854C270.384 24.4119 270.414 24.1195 270.475 23.8081C270.543 23.4891 270.646 23.1777 270.783 22.8738C270.919 22.5624 271.098 22.2662 271.318 21.9852C271.538 21.7041 271.8 21.4573 272.104 21.2446C272.416 21.0243 272.773 20.8496 273.175 20.7205C273.578 20.5914 274.033 20.5268 274.542 20.5268H285.229V23.4891H274.542C274.155 23.4891 273.859 23.5916 273.654 23.7967C273.449 24.0018 273.346 24.3056 273.346 24.7082V32.7062C273.346 33.086 273.449 33.3822 273.654 33.5949C273.866 33.8 274.163 33.9025 274.542 33.9025H285.229V36.8647Z" fill="#363636"/>
<path d="M107.524 60.5072C106.825 60.5072 106.115 60.4283 105.393 60.2705C104.672 60.124 104.091 59.9493 103.652 59.7464L103.871 58.0386C104.435 58.3092 105.072 58.5459 105.782 58.7488C106.492 58.9517 107.197 59.0531 107.896 59.0531C108.685 59.0531 109.293 58.9122 109.722 58.6304C110.161 58.3373 110.381 57.9034 110.381 57.3285C110.381 56.9001 110.268 56.5451 110.043 56.2633C109.829 55.9702 109.508 55.7278 109.079 55.5362C108.662 55.3333 108.076 55.1191 107.321 54.8937C106.554 54.6683 105.917 54.4259 105.41 54.1666C104.903 53.9074 104.491 53.5523 104.176 53.1014C103.871 52.6505 103.719 52.0813 103.719 51.3937C103.719 50.4356 104.086 49.6634 104.818 49.0773C105.562 48.4911 106.605 48.198 107.946 48.198C108.668 48.198 109.35 48.2769 109.992 48.4348C110.646 48.5926 111.215 48.7842 111.7 49.0096L111.531 50.7174C110.9 50.3454 110.291 50.0749 109.705 49.9058C109.119 49.7367 108.51 49.6521 107.879 49.6521C107.146 49.6521 106.56 49.7874 106.12 50.0579C105.692 50.3285 105.478 50.7455 105.478 51.3092C105.478 51.6924 105.574 52.008 105.765 52.256C105.968 52.504 106.255 52.7182 106.627 52.8985C106.999 53.0676 107.518 53.2536 108.183 53.4565C109.513 53.8623 110.505 54.347 111.159 54.9106C111.813 55.4629 112.14 56.2294 112.14 57.2101C112.14 58.2472 111.751 59.0588 110.973 59.6449C110.195 60.2198 109.045 60.5072 107.524 60.5072ZM119.173 60.5072C118.046 60.5072 117.037 60.2536 116.147 59.7464C115.267 59.2391 114.58 58.5233 114.084 57.599C113.588 56.6634 113.34 55.5813 113.34 54.3526C113.34 53.124 113.588 52.0475 114.084 51.1232C114.58 50.1876 115.267 49.4662 116.147 48.9589C117.037 48.4517 118.046 48.198 119.173 48.198C120.3 48.198 121.304 48.4517 122.183 48.9589C123.073 49.4662 123.766 50.1876 124.262 51.1232C124.758 52.0475 125.006 53.124 125.006 54.3526C125.006 55.5813 124.758 56.6634 124.262 57.599C123.766 58.5233 123.073 59.2391 122.183 59.7464C121.304 60.2536 120.3 60.5072 119.173 60.5072ZM119.173 58.9517C120.052 58.9517 120.802 58.7544 121.422 58.3599C122.042 57.9541 122.504 57.4074 122.808 56.7198C123.124 56.0209 123.282 55.2319 123.282 54.3526C123.282 53.4734 123.124 52.69 122.808 52.0024C122.504 51.3035 122.042 50.7568 121.422 50.3623C120.802 49.9565 120.052 49.7536 119.173 49.7536C118.294 49.7536 117.544 49.9565 116.924 50.3623C116.304 50.7568 115.837 51.3035 115.521 52.0024C115.217 52.69 115.064 53.4734 115.064 54.3526C115.064 55.2319 115.217 56.0209 115.521 56.7198C115.837 57.4074 116.304 57.9541 116.924 58.3599C117.544 58.7544 118.294 58.9517 119.173 58.9517ZM127.027 48.4348H128.634V58.8164H134.061V60.2705H127.027V48.4348ZM139.969 60.5072C138.335 60.5072 137.106 60.0507 136.283 59.1377C135.471 58.2133 135.066 56.917 135.066 55.2488V48.4348H136.672V54.8092C136.672 56.1055 136.903 57.1369 137.365 57.9034C137.827 58.6699 138.695 59.0531 139.969 59.0531C141.243 59.0531 142.111 58.6699 142.573 57.9034C143.035 57.1256 143.266 56.0942 143.266 54.8092V48.4348H144.872V55.2488C144.872 56.917 144.461 58.2133 143.638 59.1377C142.827 60.0507 141.603 60.5072 139.969 60.5072ZM155.941 59.8309C155.039 60.248 154.047 60.4734 152.965 60.5072L152.745 61.1836H152.881C153.332 61.1836 153.687 61.3019 153.946 61.5386C154.216 61.7866 154.352 62.1248 154.352 62.5531C154.352 63.0378 154.183 63.4154 153.844 63.686C153.506 63.9565 153.078 64.0918 152.559 64.0918C152.063 64.0918 151.624 63.9847 151.241 63.7705L151.494 62.942C151.844 63.1336 152.199 63.2294 152.559 63.2294C152.807 63.2294 153.005 63.1731 153.151 63.0604C153.298 62.9476 153.371 62.7898 153.371 62.5869C153.371 62.3728 153.298 62.2037 153.151 62.0797C153.016 61.967 152.807 61.9106 152.526 61.9106C152.266 61.9106 152.007 61.9557 151.748 62.0459L152.137 60.4903C151.088 60.4114 150.153 60.1071 149.33 59.5773C148.518 59.0475 147.881 58.3373 147.419 57.4468C146.968 56.5451 146.743 55.5137 146.743 54.3526C146.743 53.124 147.002 52.0475 147.521 51.1232C148.039 50.1876 148.755 49.4662 149.668 48.9589C150.581 48.4517 151.618 48.198 152.779 48.198C153.354 48.198 153.918 48.26 154.47 48.384C155.022 48.508 155.513 48.6771 155.941 48.8913L155.772 50.3792C154.757 49.8945 153.754 49.6521 152.762 49.6521C151.861 49.6521 151.088 49.8607 150.446 50.2778C149.803 50.6836 149.319 51.2415 148.992 51.9517C148.665 52.6618 148.501 53.4621 148.501 54.3526C148.501 55.2431 148.665 56.0435 148.992 56.7536C149.319 57.4637 149.798 58.0274 150.429 58.4444C151.06 58.8502 151.827 59.0531 152.729 59.0531C153.788 59.0531 154.803 58.8164 155.772 58.343L155.941 59.8309ZM162.781 60.5072C161.654 60.5072 160.645 60.2536 159.755 59.7464C158.875 59.2391 158.188 58.5233 157.692 57.599C157.196 56.6634 156.948 55.5813 156.948 54.3526C156.948 53.124 157.196 52.0475 157.692 51.1232C158.188 50.1876 158.875 49.4662 159.755 48.9589C160.645 48.4517 161.654 48.198 162.781 48.198C163.908 48.198 164.912 48.4517 165.791 48.9589C166.681 49.4662 167.374 50.1876 167.87 51.1232C168.366 52.0475 168.614 53.124 168.614 54.3526C168.614 55.5813 168.366 56.6634 167.87 57.599C167.374 58.5233 166.681 59.2391 165.791 59.7464C164.912 60.2536 163.908 60.5072 162.781 60.5072ZM162.781 58.9517C163.66 58.9517 164.41 58.7544 165.03 58.3599C165.65 57.9541 166.112 57.4074 166.416 56.7198C166.732 56.0209 166.89 55.2319 166.89 54.3526C166.89 53.4734 166.732 52.69 166.416 52.0024C166.112 51.3035 165.65 50.7568 165.03 50.3623C164.41 49.9565 163.66 49.7536 162.781 49.7536C161.902 49.7536 161.152 49.9565 160.532 50.3623C159.912 50.7568 159.445 51.3035 159.129 52.0024C158.825 52.69 158.672 53.4734 158.672 54.3526C158.672 55.2319 158.825 56.0209 159.129 56.7198C159.445 57.4074 159.912 57.9541 160.532 58.3599C161.152 58.7544 161.902 58.9517 162.781 58.9517ZM164.184 46.9468C164.004 46.9468 163.813 46.9187 163.61 46.8623C163.407 46.7947 163.164 46.6988 162.883 46.5749C162.387 46.3607 162.032 46.2536 161.817 46.2536C161.637 46.2536 161.496 46.31 161.395 46.4227C161.293 46.5241 161.242 46.6707 161.242 46.8623H160.143C160.143 46.3212 160.251 45.9042 160.465 45.6111C160.679 45.318 160.983 45.1715 161.378 45.1715C161.558 45.1715 161.75 45.2053 161.953 45.2729C162.155 45.3293 162.398 45.4195 162.68 45.5435C163.176 45.7576 163.531 45.8647 163.745 45.8647C163.925 45.8647 164.066 45.814 164.168 45.7125C164.269 45.5998 164.32 45.4476 164.32 45.256H165.419C165.419 45.7971 165.312 46.2141 165.098 46.5072C164.883 46.8003 164.579 46.9468 164.184 46.9468ZM170.635 48.4348H177.855V49.8889H172.242V53.355H176.706V54.8092H172.242V58.8164H178.007V60.2705H170.635V48.4348ZM183.379 60.5072C182.681 60.5072 181.97 60.4283 181.249 60.2705C180.528 60.124 179.947 59.9493 179.507 59.7464L179.727 58.0386C180.291 58.3092 180.928 58.5459 181.638 58.7488C182.348 58.9517 183.053 59.0531 183.751 59.0531C184.54 59.0531 185.149 58.9122 185.577 58.6304C186.017 58.3373 186.237 57.9034 186.237 57.3285C186.237 56.9001 186.124 56.5451 185.899 56.2633C185.685 55.9702 185.363 55.7278 184.935 55.5362C184.518 55.3333 183.932 55.1191 183.176 54.8937C182.41 54.6683 181.773 54.4259 181.266 54.1666C180.759 53.9074 180.347 53.5523 180.032 53.1014C179.727 52.6505 179.575 52.0813 179.575 51.3937C179.575 50.4356 179.941 49.6634 180.674 49.0773C181.418 48.4911 182.461 48.198 183.802 48.198C184.524 48.198 185.205 48.2769 185.848 48.4348C186.502 48.5926 187.071 48.7842 187.556 49.0096L187.387 50.7174C186.755 50.3454 186.147 50.0749 185.561 49.9058C184.974 49.7367 184.366 49.6521 183.734 49.6521C183.002 49.6521 182.416 49.7874 181.976 50.0579C181.548 50.3285 181.334 50.7455 181.334 51.3092C181.334 51.6924 181.429 52.008 181.621 52.256C181.824 52.504 182.111 52.7182 182.483 52.8985C182.855 53.0676 183.374 53.2536 184.039 53.4565C185.369 53.8623 186.361 54.347 187.015 54.9106C187.668 55.4629 187.995 56.2294 187.995 57.2101C187.995 58.2472 187.606 59.0588 186.829 59.6449C186.051 60.2198 184.901 60.5072 183.379 60.5072ZM193.67 48.4348H198.049C199.199 48.4348 200.219 48.6715 201.109 49.1449C202 49.6071 202.693 50.289 203.189 51.1908C203.685 52.0813 203.933 53.1352 203.933 54.3526C203.933 55.57 203.685 56.6296 203.189 57.5314C202.693 58.4219 202 59.1038 201.109 59.5773C200.219 60.0394 199.199 60.2705 198.049 60.2705H193.67V48.4348ZM198.049 58.8164C199.368 58.8164 200.382 58.4162 201.092 57.6159C201.814 56.8043 202.174 55.7166 202.174 54.3526C202.174 52.9887 201.814 51.9066 201.092 51.1063C200.382 50.2947 199.368 49.8889 198.049 49.8889H195.276V58.8164H198.049ZM205.955 48.4348H207.561V60.2705H205.955V48.4348ZM215.37 60.5072C214.277 60.5072 213.291 60.2536 212.411 59.7464C211.532 59.2391 210.839 58.5177 210.332 57.5821C209.825 56.6465 209.571 55.5644 209.571 54.3357C209.571 53.1071 209.83 52.0306 210.349 51.1063C210.878 50.1819 211.606 49.4662 212.53 48.9589C213.454 48.4517 214.508 48.198 215.692 48.198C216.289 48.198 216.875 48.26 217.45 48.384C218.036 48.508 218.56 48.6715 219.023 48.8744L218.87 50.2778C217.777 49.8607 216.734 49.6521 215.742 49.6521C214.762 49.6521 213.939 49.8607 213.274 50.2778C212.62 50.6836 212.13 51.2415 211.803 51.9517C211.487 52.6505 211.329 53.4509 211.329 54.3526C211.329 55.7729 211.707 56.9114 212.462 57.7681C213.229 58.6248 214.35 59.0531 215.827 59.0531C216.143 59.0531 216.481 59.0306 216.841 58.9855C217.202 58.9291 217.523 58.8446 217.805 58.7319V55.7898H215.945V54.3357H219.411V59.6111C218.915 59.8816 218.318 60.1014 217.619 60.2705C216.932 60.4283 216.182 60.5072 215.37 60.5072ZM221.624 48.4348H223.231V60.2705H221.624V48.4348ZM228.284 49.8889H224.835V48.4348H233.34V49.8889H229.89V60.2705H228.284V49.8889ZM240.162 57.0749H235.631L234.498 60.2705H232.807L237.051 48.4348H238.742L242.986 60.2705H241.295L240.162 57.0749ZM239.655 55.6207L237.896 50.6836L236.138 55.6207H239.655ZM244.46 48.4348H246.067V60.2705H244.46V48.4348ZM252.152 60.5072C251.453 60.5072 250.743 60.4283 250.021 60.2705C249.3 60.124 248.719 59.9493 248.28 59.7464L248.499 58.0386C249.063 58.3092 249.7 58.5459 250.41 58.7488C251.12 58.9517 251.825 59.0531 252.524 59.0531C253.313 59.0531 253.921 58.9122 254.35 58.6304C254.789 58.3373 255.009 57.9034 255.009 57.3285C255.009 56.9001 254.896 56.5451 254.671 56.2633C254.457 55.9702 254.135 55.7278 253.707 55.5362C253.29 55.3333 252.704 55.1191 251.949 54.8937C251.182 54.6683 250.545 54.4259 250.038 54.1666C249.531 53.9074 249.119 53.5523 248.804 53.1014C248.499 52.6505 248.347 52.0813 248.347 51.3937C248.347 50.4356 248.714 49.6634 249.446 49.0773C250.19 48.4911 251.233 48.198 252.574 48.198C253.296 48.198 253.978 48.2769 254.62 48.4348C255.274 48.5926 255.843 48.7842 256.328 49.0096L256.159 50.7174C255.528 50.3454 254.919 50.0749 254.333 49.9058C253.747 49.7367 253.138 49.6521 252.507 49.6521C251.774 49.6521 251.188 49.7874 250.748 50.0579C250.32 50.3285 250.106 50.7455 250.106 51.3092C250.106 51.6924 250.201 52.008 250.393 52.256C250.596 52.504 250.883 52.7182 251.255 52.8985C251.627 53.0676 252.146 53.2536 252.811 53.4565C254.141 53.8623 255.133 54.347 255.787 54.9106C256.441 55.4629 256.768 56.2294 256.768 57.2101C256.768 58.2472 256.379 59.0588 255.601 59.6449C254.823 60.2198 253.673 60.5072 252.152 60.5072Z" fill="#363636"/>
<path d="M67.4156 42.9441L75.2836 48.1242C75.6804 48.3855 75.6913 48.9637 75.3046 49.2396L59.4504 60.553C59.0274 60.8548 58.4362 60.5867 58.3846 60.0697L57.4028 50.2446C57.3791 50.008 57.4814 49.7764 57.6722 49.6346L66.6401 42.9663C66.8682 42.7966 67.1781 42.7878 67.4156 42.9441Z" fill="#0063B1"/>
<path d="M18.3474 42.9441L10.4794 48.1242C10.0826 48.3855 10.0717 48.9637 10.4584 49.2396L26.3126 60.553C26.7356 60.8548 27.3268 60.5867 27.3784 60.0697L28.3602 50.2446C28.3839 50.008 28.2816 49.7764 28.0908 49.6346L19.1229 42.9663C18.8948 42.7966 18.5849 42.7878 18.3474 42.9441Z" fill="#0063B1"/>
<path d="M48.0585 2.695C41.5232 23.4967 29.8772 63.0928 27.6398 70.7135C27.4492 71.3629 27.94 72 28.6168 72H37.2932C37.7439 72 38.1406 71.7026 38.267 71.27L58.1211 3.29894C58.3108 2.64958 57.8238 2 57.1473 2H49.0212C48.5783 2 48.1912 2.27251 48.0585 2.695Z" fill="#363636"/>
<path d="M0 32.279V42.6022C0 43.1453 0.60775 43.4669 1.05676 43.1614L26.9665 25.5346C27.1516 25.4087 27.2624 25.1993 27.2624 24.9754V15.2208C27.2624 14.6824 26.6639 14.3599 26.2142 14.6559L0.30442 31.7141C0.114392 31.8392 0 32.0515 0 32.279Z" fill="#0063B1"/>
<path d="M85.7629 32.279V42.6022C85.7629 43.1453 85.1552 43.4669 84.7062 43.1614L58.7964 25.5346C58.6113 25.4087 58.5005 25.1993 58.5005 24.9754V15.2208C58.5005 14.6824 59.0991 14.3599 59.5488 14.6559L85.4585 31.7141C85.6485 31.8392 85.7629 32.0515 85.7629 32.279Z" fill="#0063B1"/>
</svg>
